<?xml version="1.0" encoding="UTF-8" standalone="no"?>
<svg xmlns="http://www.w3.org/2000/svg" height="504" width="720" version="1.0" xmlns:xlink="http://www.w3.org/1999/xlink" viewBox="-2100 -1470 4200 2940">
 <rect y="-50%" x="-50%" height="100%" fill="#009b3a" width="100%"/>
 <path d="m-1743 0 1743 1113 1743-1113-1743-1113z" fill="#fedf00"/>
 <circle r="735" fill="#002776"/>
 <clipPath id="band">
  <circle r="735"/>
 </clipPath>
 <path fill="#fff" d="m-2205 1470a1785 1785 0 0 1 3570 0h-105a1680 1680 0 1 0 -3360 0z" clip-path="url(#band)"/>
 <g transform="translate(-420,1470)" fill="#009b3a">
  <use y="-1697.5" xlink:href="#O" transform="rotate(-7)"/>
  <use y="-1697.5" xlink:href="#R" transform="rotate(-4)"/>
  <use y="-1697.5" xlink:href="#D" transform="rotate(-1)"/>
  <use y="-1697.5" xlink:href="#E" transform="rotate(2)"/>
  <use y="-1697.5" xlink:href="#M" transform="rotate(5)"/>
  <use y="-1697.5" xlink:href="#e" transform="rotate(9.75)"/>
  <use y="-1697.5" xlink:href="#P" transform="rotate(14.5)"/>
  <use y="-1697.5" xlink:href="#R" transform="rotate(17.5)"/>
  <use y="-1697.5" xlink:href="#O" transform="rotate(20.5)"/>
  <use y="-1697.5" xlink:href="#G" transform="rotate(23.5)"/>
  <use y="-1697.5" xlink:href="#R" transform="rotate(26.5)"/>
  <use y="-1697.5" xlink:href="#E" transform="rotate(29.5)"/>
  <use y="-1697.5" xlink:href="#S" transform="rotate(32.5)"/>
  <use y="-1697.5" xlink:href="#S" transform="rotate(35.5)"/>
  <use y="-1697.5" xlink:href="#O" transform="rotate(38.5)"/>
 </g>
 <use id="αCMi" y="-132" x="-600" xlink:href="#star1"/>
 <use id="αCMa" y="177" x="-535" xlink:href="#star1"/>
 <use id="βCMa" y="243" x="-625" xlink:href="#star2"/>
 <use id="γCMa" y="132" x="-463" xlink:href="#star4"/>
 <use id="δCMa" y="250" x="-382" xlink:href="#star2"/>
 <use id="εCMa" y="323" x="-404" xlink:href="#star3"/>
 <use id="αVir" y="-228" x="228" xlink:href="#star1"/>
 <use id="αSco" y="258" x="515" xlink:href="#star1"/>
 <use id="βSco" y="265" x="617" xlink:href="#star3"/>
 <use id="εSco" y="323" x="545" xlink:href="#star2"/>
 <use id="θSco" y="477" x="368" xlink:href="#star2"/>
 <use id="ιSco" y="551" x="367" xlink:href="#star3"/>
 <use id="κSco" y="419" x="441" xlink:href="#star3"/>
 <use id="λSco" y="382" x="500" xlink:href="#star2"/>
 <use id="μSco" y="405" x="365" xlink:href="#star3"/>
 <use id="αHya" y="30" x="-280" xlink:href="#star2"/>
 <use id="γHya" y="-37" x="200" xlink:href="#star3"/>
 <use id="αCru" y="330" xlink:href="#star1"/>
 <use id="βCru" y="184" x="85" xlink:href="#star2"/>
 <use id="γCru" y="118" xlink:href="#star2"/>
 <use id="δCru" y="184" x="-74" xlink:href="#star3"/>
 <use id="εCru" y="235" x="-37" xlink:href="#star4"/>
 <use id="αTrA" y="495" x="220" xlink:href="#star2"/>
 <use id="βTrA" y="430" x="283" xlink:href="#star3"/>
 <use id="γTrA" y="412" x="162" xlink:href="#star3"/>
 <use id="αCar" y="390" x="-295" xlink:href="#star1"/>
 <use id="σOct" y="575" xlink:href="#star5"/>
</svg>
